P2
# Fichier PGM dans sa version ASCII
70 103
255
127
124
125
120
117
117
124
126
124
123
122
120
122
132
129
121
124
113
125
130
131
125
120
122
122
124
123
122
126
123
124
120
120
124
124
128
131
133
135
135
134
133
132
130
129
130
125
124
123
125
121
125
128
124
129
132
131
126
124
130
126
128
132
130
129
128
127
125
124
124
120
126
122
119
117
120
123
123
122
122
123
122
123
131
130
121
123
121
129
130
135
132
121
119
124
127
128
128
130
123
122
116
112
111
103
93
93
100
110
119
123
127
132
132
131
132
132
120
121
120
127
118
124
124
124
124
132
133
134
134
122
123
130
130
127
126
126
124
124
124
113
127
117
118
114
122
122
119
120
123
125
123
121
127
134
133
126
112
113
134
147
133
132
135
139
134
125
107
80
71
67
53
44
48
50
48
47
47
46
48
58
75
94
111
121
120
117
129
131
131
119
121
128
130
126
126
136
127
128
137
134
133
133
130
131
127
124
123
123
127
109
126
116
122
112
121
124
121
123
129
132
126
121
127
136
134
132
131
126
138
146
131
128
129
109
66
48
49
40
39
57
67
62
58
57
58
59
58
59
60
58
51
43
42
59
79
102
116
132
132
131
126
134
136
128
125
137
127
127
139
139
139
138
135
136
133
129
128
128
130
114
127
119
126
116
122
127
126
128
134
137
130
123
128
136
126
122
140
136
132
130
119
92
64
45
41
57
68
59
51
53
49
47
53
56
53
52
51
50
55
62
64
60
55
52
52
42
56
94
130
140
123
122
127
130
126
134
134
132
140
135
135
136
135
133
131
129
127
126
129
124
131
127
129
127
132
133
131
129
132
137
133
126
130
134
127
125
139
134
129
104
72
51
35
36
52
65
70
63
48
51
48
44
44
42
42
43
42
41
44
51
58
62
64
62
56
52
39
35
62
98
126
125
130
137
135
134
129
129
142
142
137
132
128
127
124
121
119
121
126
134
136
134
130
140
145
139
137
131
130
137
139
133
135
141
143
142
147
122
102
69
41
34
40
44
57
70
72
59
48
51
50
49
48
43
45
44
46
46
43
38
40
49
56
57
55
58
60
56
45
37
63
114
129
121
129
142
138
139
148
141
134
133
132
131
128
126
123
124
129
134
133
143
137
141
149
144
139
134
130
138
141
146
131
142
145
143
124
80
41
33
50
58
49
52
61
68
66
56
55
60
56
49
53
51
53
51
49
51
50
45
40
39
39
46
57
66
66
56
51
50
43
37
99
143
135
147
130
129
147
140
149
137
137
142
136
133
131
132
133
132
133
143
140
138
144
143
141
139
146
150
148
150
135
118
139
124
87
64
58
54
56
59
58
66
82
84
69
57
54
59
60
52
56
55
54
54
54
54
51
44
42
45
46
47
42
45
53
55
55
55
51
51
39
82
139
139
140
142
141
154
136
146
142
139
139
137
136
136
133
135
140
143
143
138
139
143
137
137
144
143
137
143
135
119
117
75
47
52
58
55
56
52
55
62
85
85
67
62
59
63
65
64
61
62
56
53
51
54
55
52
52
54
51
45
38
38
42
46
49
53
52
40
42
39
91
137
141
138
145
143
136
153
156
149
145
142
141
136
128
140
145
147
143
140
138
143
141
149
144
149
146
156
152
147
81
48
49
61
52
54
68
64
60
66
83
75
64
65
70
65
61
66
56
56
50
48
45
47
52
52
53
50
44
44
46
47
42
38
43
49
48
49
46
37
37
93
144
144
146
145
153
154
152
149
145
141
139
134
124
142
142
146
142
144
142
144
136
150
136
152
154
157
148
105
39
45
54
55
49
52
61
61
60
80
91
73
58
54
58
46
44
54
48
50
51
54
53
53
51
49
49
50
48
49
47
45
44
44
47
51
50
48
40
43
30
44
104
150
128
165
156
157
149
146
142
136
135
134
129
143
143
149
142
146
149
148
151
161
141
158
160
154
133
56
42
50
52
48
49
60
69
72
82
107
117
106
95
85
79
70
63
65
62
57
53
50
51
56
56
47
46
50
50
49
49
49
48
48
45
45
47
41
49
43
50
30
51
120
134
156
165
148
148
147
142
138
138
138
134
144
148
154
145
144
153
149
160
160
145
151
155
144
94
44
46
47
56
63
79
101
112
136
153
156
159
163
155
141
134
133
123
109
104
87
68
52
48
52
51
48
47
47
46
48
51
51
47
44
43
42
47
44
48
42
41
42
36
67
141
157
164
136
142
142
144
146
148
148
141
146
150
155
147
146
155
155
161
160
154
152
149
126
58
48
48
65
93
113
145
172
167
176
188
178
174
179
171
156
156
159
157
140
142
129
106
82
68
59
57
52
54
53
49
48
46
45
46
46
45
44
42
44
47
45
46
38
37
33
98
164
151
139
144
146
148
152
155
156
147
151
144
155
147
148
158
168
162
168
160
155
145
78
44
47
74
111
136
155
170
181
179
180
188
192
190
187
179
170
169
162
162
139
130
124
116
99
83
66
63
52
56
52
49
47
44
43
46
46
44
42
43
43
48
49
50
42
39
40
42
115
152
146
146
149
151
155
155
158
147
151
138
164
162
159
164
168
155
154
157
150
113
54
47
75
100
113
130
166
182
190
202
204
206
208
206
205
201
200
194
184
179
164
154
145
130
110
93
75
70
58
61
57
52
48
45
45
44
43
42
42
44
44
48
48
49
44
44
51
31
56
140
148
147
154
161
147
156
157
146
155
135
165
171
167
167
163
167
157
144
150
67
52
54
88
115
138
166
185
193
210
219
220
213
210
214
216
212
211
204
195
188
188
178
167
146
124
106
89
83
66
65
59
53
49
47
45
43
41
41
43
44
45
48
47
45
42
43
51
37
45
102
148
151
160
159
141
154
159
149
159
141
161
165
159
157
156
182
159
141
118
58
46
57
99
147
175
187
199
208
214
213
207
210
216
221
217
214
214
208
203
196
188
167
161
155
137
117
100
91
69
65
59
54
51
48
47
44
42
42
45
45
46
46
45
41
40
41
48
35
40
57
143
151
151
163
155
143
152
157
157
158
171
169
163
159
166
167
155
145
64
47
55
78
135
160
179
200
210
213
219
215
213
210
213
216
216
219
221
212
203
197
197
185
180
165
150
132
110
96
73
70
67
61
53
52
50
46
44
44
47
45
45
42
42
39
43
47
37
34
39
34
113
154
150
161
163
143
154
158
159
168
168
162
173
167
175
162
164
99
49
39
57
99
145
163
169
196
206
213
226
221
217
212
211
218
222
219
213
214
209
202
196
184
183
174
156
134
111
99
78
76
70
64
57
54
52
50
46
45
47
45
44
41
43
40
43
46
29
45
54
33
65
146
156
150
157
149
160
152
157
170
171
170
191
171
159
180
123
49
51
59
69
95
124
164
186
182
200
214
220
223
214
214
213
212
212
217
217
211
206
203
199
193
189
174
155
134
113
103
86
83
73
64
60
56
54
52
48
45
46
44
45
44
46
40
38
36
37
47
54
39
36
127
151
145
156
145
152
144
157
169
172
175
183
181
166
152
103
59
45
31
72
112
130
157
186
206
204
209
213
211
210
210
218
215
210
212
209
207
206
199
199
187
179
165
150
130
119
113
88
86
77
69
62
58
56
53
51
48
49
46
42
43
43
38
36
42
39
39
43
41
47
83
146
147
170
139
131
146
153
168
179
173
181
183
181
107
115
71
30
56
70
108
145
164
169
196
203
210
207
203
203
206
213
210
205
207
209
207
204
197
194
180
171
161
143
129
118
111
90
88
79
72
66
60
55
55
52
48
46
46
44
43
42
41
43
48
41
28
37
43
38
64
154
142
152
123
135
139
150
164
176
182
184
181
135
112
107
47
48
51
72
105
147
163
168
199
194
195
193
198
201
201
205
206
203
203
202
205
201
193
186
171
159
155
137
131
122
113
99
95
85
79
73
65
59
57
53
49
45
49
49
47
44
43
44
43
42
36
39
38
41
55
123
141
119
112
121
130
162
183
175
178
186
157
114
114
72
38
50
49
76
113
144
165
176
202
192
191
191
195
197
195
197
201
200
198
196
200
196
189
181
167
157
156
147
150
138
127
115
107
93
89
86
76
67
60
53
47
44
47
50
49
45
46
45
41
41
40
40
34
42
43
86
105
113
90
110
140
162
188
186
185
179
121
114
75
47
51
45
50
97
122
145
171
181
195
193
197
198
195
198
201
202
202
197
194
198
199
196
188
179
169
158
158
148
152
140
134
129
120
110
104
98
88
75
64
53
47
45
46
47
46
43
45
47
44
43
38
38
39
40
34
64
96
97
94
106
126
174
184
189
195
158
113
101
61
42
60
40
62
110
137
145
173
187
187
192
195
201
200
205
209
208
206
201
197
202
202
199
191
179
175
164
158
159
164
149
149
142
133
126
118
109
96
81
67
55
49
46
49
47
44
41
43
43
43
41
42
39
41
39
41
52
94
106
87
98
116
171
186
185
193
143
113
71
53
65
44
46
65
126
140
154
176
188
180
198
198
199
197
197
195
194
202
206
200
201
201
200
196
184
186
178
171
174
176
158
162
153
141
136
126
116
100
83
69
59
50
46
46
44
44
44
44
42
42
37
41
35
39
33
38
49
84
107
85
80
114
181
188
185
173
129
102
61
52
71
38
46
66
122
150
155
185
197
190
183
192
187
197
194
207
202
201
201
195
200
198
199
187
187
192
187
174
174
171
156
159
150
150
144
128
117
96
76
69
61
50
45
47
45
43
41
43
44
43
43
40
37
37
34
38
48
80
89
93
78
100
191
200
185
163
111
84
58
64
46
60
15
72
107
140
166
188
196
200
206
193
205
195
200
196
199
204
198
193
194
194
197
183
173
165
167
159
164
172
164
163
156
144
138
133
120
101
80
69
59
50
47
48
45
42
41
43
44
43
41
40
40
40
36
38
47
79
87
93
80
81
215
196
180
156
106
99
49
46
60
52
54
66
129
151
169
186
166
166
164
191
185
196
195
191
205
196
195
195
177
177
156
134
133
147
154
156
161
168
156
140
148
140
130
119
108
95
76
65
56
48
48
48
45
42
41
43
44
43
42
42
43
40
35
34
37
77
86
77
75
73
199
198
184
136
89
100
62
45
63
29
39
43
120
151
155
174
176
155
153
162
155
180
192
187
192
200
198
181
151
143
100
88
116
103
137
137
129
135
139
121
122
119
108
91
90
82
69
61
55
48
48
48
47
42
42
44
43
42
43
43
43
43
41
38
35
75
80
64
67
76
177
194
164
111
83
79
67
54
56
44
25
58
121
139
150
140
127
125
110
98
111
163
196
168
182
198
181
149
94
82
77
82
82
93
83
77
87
87
100
98
91
93
92
76
76
76
70
65
59
50
45
48
48
45
43
43
43
43
42
42
43
46
49
48
44
72
75
64
64
80
177
169
147
113
86
74
62
46
60
54
29
60
86
102
112
111
89
78
79
74
78
110
160
171
160
165
150
115
78
63
74
76
68
91
94
96
79
51
56
67
60
66
69
63
62
72
72
69
62
50
44
48
49
48
44
43
43
42
43
42
42
44
46
46
44
64
74
65
64
84
169
159
142
109
75
73
72
61
59
59
32
56
69
77
54
81
114
141
124
113
88
69
111
189
171
170
135
89
62
44
54
82
113
144
143
130
111
85
69
59
49
57
49
48
62
77
80
74
62
51
46
46
51
51
46
42
43
43
43
43
43
41
40
42
44
55
76
74
71
80
160
156
132
91
72
71
73
68
50
56
40
66
58
55
61
80
103
80
69
68
85
89
97
149
175
170
130
79
63
51
84
95
103
97
74
47
40
53
62
56
48
51
51
61
81
92
87
75
65
50
47
46
52
54
49
43
43
44
43
42
43
42
39
41
46
51
75
78
76
71
152
153
130
96
73
57
56
59
43
53
43
49
88
42
42
61
101
57
21
21
46
72
102
137
194
168
112
59
80
70
81
93
136
158
68
28
41
53
57
53
49
52
72
100
126
118
95
75
67
50
44
44
52
54
49
43
42
43
44
42
45
43
40
42
46
49
73
75
71
67
144
151
134
123
70
51
55
62
45
45
48
54
123
103
83
135
159
96
68
74
81
114
122
150
211
175
111
60
71
88
117
166
198
185
139
91
93
94
93
98
111
132
149
152
148
129
100
77
69
52
44
43
49
51
48
43
41
41
41
41
43
42
39
41
43
45
73
75
66
68
147
152
147
134
58
50
57
61
43
34
34
72
144
122
113
165
192
187
155
127
100
110
128
170
219
179
112
71
76
100
124
155
153
162
167
153
145
128
112
105
116
145
161
158
152
135
108
81
66
50
43
42
47
49
47
44
42
41
38
38
41
42
40
41
42
43
73
73
63
71
133
147
138
112
60
51
55
62
39
31
29
84
132
145
135
118
103
102
76
79
102
133
150
185
200
168
111
87
100
98
120
144
131
128
128
115
101
80
78
109
140
158
164
161
151
131
109
82
66
50
44
43
47
48
47
45
44
41
38
39
43
44
44
46
44
41
70
70
60
69
111
136
111
84
82
58
57
55
39
43
50
96
184
173
182
184
151
132
118
137
166
185
164
181
183
171
122
96
101
112
137
176
171
125
123
124
134
144
158
176
177
166
161
158
140
112
92
72
62
51
45
45
46
47
47
47
45
41
40
41
44
46
47
49
45
39
65
67
60
64
106
131
88
79
82
58
49
52
43
38
40
91
149
193
189
196
212
201
174
180
183
168
149
183
198
171
116
104
122
125
156
191
195
216
212
213
216
219
201
177
171
171
160
151
136
108
90
67
56
48
43
47
47
46
46
47
45
42
40
41
45
46
47
49
44
38
60
66
66
66
94
111
71
81
69
60
49
44
38
37
22
83
171
167
193
191
169
188
191
199
203
179
172
183
192
162
129
123
117
133
153
184
199
196
203
208
198
204
206
190
179
157
141
137
121
101
88
66
54
48
47
48
46
46
46
47
45
41
43
44
47
47
47
49
44
36
59
67
73
73
82
85
71
76
80
61
49
43
37
38
31
83
136
158
168
181
191
198
181
192
192
162
176
191
203
164
142
133
117
130
155
175
197
196
199
209
203
191
193
178
179
151
129
127
113
91
76
60
53
47
46
50
48
46
46
48
47
43
41
44
44
49
42
46
40
32
61
68
79
76
79
82
75
78
80
63
52
48
47
38
37
74
130
159
173
189
200
193
191
196
172
175
186
209
196
161
145
136
127
140
149
186
188
187
194
205
198
190
187
181
169
146
126
116
101
84
73
58
51
46
45
47
47
45
47
49
48
45
43
44
44
48
44
54
44
37
57
76
86
83
77
72
63
61
63
57
55
54
54
37
33
53
119
165
177
181
195
189
203
185
187
179
179
202
198
171
144
138
128
145
149
190
183
187
191
200
193
186
175
177
151
133
117
104
95
81
72
58
52
47
46
45
46
46
49
50
50
46
45
44
41
40
35
54
48
45
57
90
105
107
67
64
60
64
58
53
50
52
51
47
40
45
107
153
171
181
190
186
200
170
192
168
188
196
194
172
140
131
113
137
157
174
180
181
185
187
183
180
166
173
141
129
117
100
89
77
69
54
51
46
45
44
46
47
49
51
50
46
44
45
45
42
37
53
45
48
49
77
86
89
68
61
58
63
51
51
49
54
49
51
37
36
93
143
166
181
188
180
184
174
160
158
191
212
194
162
131
114
108
111
139
161
167
178
179
182
175
170
159
165
134
126
109
94
82
71
65
52
50
47
45
44
46
47
49
50
49
46
45
42
37
42
45
56
46
48
46
60
63
67
51
42
51
61
54
57
56
50
44
44
39
40
78
129
156
176
186
181
179
184
145
159
189
207
189
160
142
127
126
102
135
175
184
175
182
177
175
168
159
154
127
119
99
87
77
67
60
51
51
48
45
43
46
47
48
49
48
46
44
49
46
42
31
31
43
50
50
57
64
67
57
42
52
58
51
55
56
48
46
34
36
41
63
115
145
163
175
176
170
166
140
142
202
202
197
150
116
120
127
88
112
196
191
178
180
176
171
159
148
134
114
110
89
83
73
63
58
50
53
48
44
42
45
46
48
49
49
48
45
46
38
45
46
41
49
46
47
46
52
56
64
58
60
53
46
53
57
45
43
46
46
34
52
94
123
150
158
168
153
154
140
103
173
185
165
106
76
71
78
66
91
186
178
187
177
166
163
151
133
119
105
96
84
75
72
66
59
54
50
47
45
43
44
47
49
49
48
46
46
41
44
45
46
35
42
45
51
47
64
54
57
52
53
49
45
49
47
47
46
45
46
35
43
81
105
136
151
153
144
172
185
90
110
144
95
64
50
46
43
63
79
182
180
174
167
162
152
141
123
110
97
88
79
72
71
65
57
53
49
46
43
43
44
47
49
50
49
47
45
42
43
44
45
38
42
47
54
48
61
54
58
56
55
54
54
53
49
45
44
42
45
39
36
75
89
118
134
139
139
188
189
195
116
61
55
55
57
52
44
54
87
155
186
162
159
144
143
134
117
104
93
86
79
71
70
63
57
51
46
45
43
43
44
47
49
51
49
47
44
45
41
44
44
42
42
45
53
45
57
57
54
56
53
53
52
48
48
46
44
42
45
44
35
71
90
113
115
118
165
167
176
198
200
126
62
60
51
45
64
91
125
143
156
146
140
140
139
128
116
105
94
88
81
76
72
65
57
51
47
44
41
43
44
47
49
51
51
48
44
46
40
44
43
45
43
45
53
45
54
60
55
57
54
51
48
47
50
50
50
48
47
46
38
64
95
105
111
113
130
150
173
181
190
161
85
81
84
91
94
110
133
124
123
107
120
129
133
126
117
109
97
90
83
77
75
68
59
52
48
45
42
44
45
47
49
51
50
48
44
47
40
43
43
46
45
46
54
49
52
63
57
56
56
51
46
49
52
53
51
49
46
45
46
56
97
106
114
121
120
110
146
181
183
166
135
121
107
100
106
111
109
99
91
86
106
121
131
129
120
111
99
91
84
78
75
67
59
52
48
45
43
45
45
47
49
51
49
47
45
45
42
42
44
43
47
44
51
49
51
67
60
53
56
52
45
52
54
55
52
49
44
44
49
44
91
114
128
132
115
73
71
96
93
133
141
100
83
78
81
77
66
58
64
108
122
139
140
132
122
111
98
89
82
77
74
66
58
52
47
45
44
45
46
48
50
50
48
46
45
43
44
41
45
40
49
44
52
51
51
69
58
57
55
52
49
55
58
58
54
47
34
44
52
40
68
112
132
126
138
97
103
147
106
109
90
63
61
67
68
56
62
80
105
131
144
154
144
131
119
108
96
86
78
74
72
64
56
51
48
45
43
44
46
48
50
50
48
47
45
44
43
42
46
40
50
45
49
52
52
64
56
55
54
55
51
57
62
57
51
45
36
47
51
38
57
105
126
124
150
148
167
190
170
178
178
169
156
124
103
95
102
118
132
138
146
151
143
128
115
104
92
83
77
71
66
60
53
50
48
47
45
44
46
50
52
51
49
49
45
42
42
42
45
38
49
44
47
52
51
59
72
62
62
61
49
51
51
52
46
42
41
47
44
34
39
76
115
131
130
155
179
180
158
146
130
118
114
100
97
103
111
116
120
127
133
137
131
117
103
91
79
72
70
67
64
58
53
49
48
48
48
49
50
50
50
48
46
45
43
41
41
40
42
38
46
44
49
51
50
56
80
62
62
66
55
56
54
49
45
43
43
45
42
34
33
50
81
111
115
147
165
162
140
114
86
75
75
69
75
86
97
99
101
113
120
124
122
111
97
86
73
69
70
66
62
58
52
47
45
46
46
47
48
48
47
44
42
41
43
40
41
38
41
38
43
44
49
52
51
59
74
51
50
57
52
53
48
46
46
44
43
43
44
41
33
34
48
74
97
131
152
161
166
143
114
99
92
91
100
103
109
104
100
108
111
110
110
100
90
80
70
68
68
66
60
55
48
44
41
41
42
41
42
43
45
45
44
45
43
40
41
38
40
40
43
44
48
51
53
62
81
59
53
61
58
58
51
46
48
46
46
44
48
49
36
33
45
52
70
104
141
169
172
183
181
174
159
149
144
135
127
116
108
108
108
104
97
86
77
73
67
65
65
63
58
52
47
43
43
44
44
44
45
46
46
46
45
45
44
40
41
39
39
43
42
45
50
51
52
59
78
63
55
61
59
55
49
47
47
45
51
46
44
47
44
45
45
43
49
88
123
152
168
194
205
209
199
182
156
144
130
119
115
111
107
99
88
78
69
68
65
65
65
61
55
50
46
45
46
49
48
49
50
49
48
46
43
42
43
39
41
38
39
44
42
46
50
51
52
59
93
80
67
70
66
58
47
46
45
47
54
45
41
46
42
41
37
39
35
58
90
127
173
194
195
198
196
177
148
138
123
114
110
102
95
83
74
68
63
61
60
61
61
59
54
48
44
44
46
48
47
48
49
49
48
47
44
43
42
40
41
38
39
44
43
47
49
51
55
61
86
72
59
68
66
58
48
45
43
52
53
44
50
52
44
36
33
39
40
34
53
88
146
179
181
177
177
160
141
131
118
107
94
83
79
69
62
63
63
61
61
61
59
57
51
45
42
42
44
44
43
43
45
47
47
46
45
44
41
41
40
39
39
42
46
47
48
52
54
52
80
73
64
67
60
50
52
52
44
48
52
49
52
53
43
35
34
39
42
34
36
53
98
137
159
151
146
141
125
111
100
89
76
65
64
61
59
61
62
62
60
58
56
53
45
40
39
42
45
43
39
38
42
45
46
44
45
47
45
43
41
39
39
42
44
46
48
51
52
51
86
85
73
65
59
50
56
56
47
45
49
46
45
43
40
40
36
37
41
37
37
43
60
92
122
116
106
103
95
87
81
73
63
57
59
60
59
60
61
59
55
53
50
49
46
43
44
47
48
44
40
38
43
46
44
42
44
48
48
45
41
39
39
42
43
46
50
50
49
46
94
96
76
59
57
53
55
54
47
45
47
44
42
42
40
42
43
42
43
40
37
42
49
51
63
74
72
67
63
66
66
61
57
57
58
56
56
57
55
52
49
46
47
49
51
52
53
53
50
46
44
41
45
47
45
42
44
48
48
44
41
40
41
42
43
43
45
47
49
51
91
98
74
52
53
57
53
50
47
46
46
45
42
42
41
40
42
39
39
36
35
39
44
41
42
55
53
42
47
57
58
55
55
59
57
52
51
49
48
46
45
46
49
51
56
58
58
56
52
49
49
45
46
46
44
44
45
46
45
43
42
42
42
43
44
46
49
48
47
46
89
98
78
58
52
58
51
48
49
47
44
45
44
42
41
39
35
31
33
33
33
37
35
44
46
52
48
41
48
53
56
51
50
57
54
52
49
47
46
47
49
51
53
55
57
58
58
56
55
55
55
50
47
44
44
46
46
44
41
42
43
44
44
43
44
42
42
42
43
42
93
101
87
69
54
58
53
46
49
48
44
48
50
46
43
39
34
32
38
35
30
29
31
35
34
41
53
55
52
47
50
44
43
52
52
53
51
47
48
51
54
57
57
56
56
56
57
58
59
58
58
55
48
43
44
46
44
40
40
42
45
45
44
43
43
42
42
43
44
45
96
92
90
77
50
60
52
47
49
52
42
46
43
43
42
38
40
36
40
38
36
36
35
35
33
34
54
80
62
48
64
60
37
51
54
52
53
53
53
54
55
55
57
59
59
63
60
61
63
58
62
59
49
43
45
49
42
40
38
41
45
46
46
44
43
42
40
37
37
36
93
85
81
79
57
57
49
46
44
49
45
46
43
44
41
39
43
39
40
37
37
40
41
39
37
33
68
94
79
66
63
69
54
52
53
50
54
57
57
57
55
55
58
63
66
68
67
67
67
61
60
54
49
44
47
49
43
41
39
42
45
46
44
42
42
43
42
41
41
42
98
86
80
88
74
62
55
50
40
48
51
49
44
47
41
37
43
38
39
37
39
41
39
38
40
33
75
107
97
87
74
81
73
60
61
59
53
53
57
57
56
56
63
70
73
74
74
74
69
63
55
51
51
47
49
49
43
43
40
43
45
44
41
41
43
45
45
43
43
44
92
86
75
84
76
59
52
51
38
47
53
49
43
48
42
37
42
37
40
41
42
42
41
42
44
39
65
109
112
97
87
84
77
66
65
62
59
59
61
65
65
66
70
74
77
83
84
82
70
70
57
52
54
47
50
47
43
42
39
41
43
42
40
41
44
46
46
43
42
43
89
88
76
80
75
57
50
51
39
47
52
49
41
46
43
39
42
37
41
44
44
42
44
47
44
43
49
104
125
114
113
96
85
79
76
72
70
69
70
72
72
72
72
74
79
87
91
89
74
80
65
55
57
45
49
44
41
39
38
40
42
42
42
43
46
47
45
43
41
40
89
88
77
80
75
56
49
51
43
48
50
50
43
47
44
37
41
35
39
40
40
38
40
42
37
40
43
96
131
126
127
105
98
90
85
81
77
76
77
77
77
75
75
77
82
90
96
96
80
91
71
61
60
44
49
44
41
38
39
41
42
45
46
47
48
47
45
43
40
39
90
83
76
81
74
53
47
48
45
47
46
50
42
46
44
37
42
36
35
37
38
36
37
41
37
38
46
88
126
135
133
115
115
105
100
96
91
89
90
89
85
81
83
86
89
97
102
104
87
99
75
69
64
43
50
46
45
40
40
42
42
46
49
49
48
48
46
43
40
38
93
81
62
74
78
49
46
55
43
45
45
51
44
46
43
34
44
33
39
40
38
41
40
42
44
44
55
72
117
143
126
121
126
103
107
97
93
91
91
90
87
94
99
102
105
106
113
105
100
97
89
73
63
46
46
53
47
45
45
44
49
50
47
50
49
47
45
41
38
38
90
71
49
65
79
52
43
48
49
48
47
44
38
49
39
36
42
38
41
43
41
41
46
36
39
49
62
69
103
136
126
128
136
117
114
108
102
100
102
97
98
101
108
110
119
122
115
108
105
105
89
77
62
51
49
54
49
50
49
48
49
53
49
50
55
51
45
41
37
37
64
67
61
62
56
41
53
46
55
51
48
38
33
45
38
37
29
47
40
28
34
58
59
45
47
61
77
85
116
125
126
131
136
131
122
123
117
111
112
104
110
112
126
125
123
125
125
132
110
108
98
84
62
56
49
51
49
51
51
52
46
53
50
49
62
57
49
46
42
45
57
62
59
58
54
42
53
44
52
53
46
39
42
45
35
36
38
43
31
37
38
43
35
49
70
88
96
96
109
127
139
138
131
138
131
136
128
124
123
117
118
125
135
134
126
129
133
146
117
113
110
95
67
62
50
51
53
50
48
55
51
54
50
50
65
56
48
46
42
44
56
57
57
57
55
48
48
44
46
55
44
37
47
46
47
37
42
46
39
45
39
45
60
79
101
121
138
136
126
139
156
150
134
143
140
143
134
137
134
133
134
139
140
141
142
145
138
141
128
122
117
107
76
68
51
54
57
49
47
56
58
56
49
54
62
55
49
47
43
43
51
56
60
55
48
47
45
47
44
53
43
30
41
39
49
37
42
46
40
42
56
81
92
101
114
138
165
167
143
143
158
158
142
147
148
149
144
147
145
139
151
153
158
158
151
149
146
151
141
129
127
120
83
72
56
57
54
48
50
52
67
61
50
57
58
53
49
46
46
48
54
51
53
51
50
50
41
46
44
44
48
40
43
39
39
34
43
40
37
63
95
99
98
117
138
160
180
185
168
156
164
169
158
150
152
157
151
151
161
147
174
161
167
166
167
160
152
162
156
143
137
133
92
80
66
59
47
51
58
46
73
68
52
59
57
52
46
43
48
52
56
47
54
49
46
55
39
44
39
40
56
52
49
46
37
36
39
49
70
96
112
105
114
141
154
163
175
184
184
174
173
174
169
156
156
163
159
162
171
162
183
171
172
172
173
166
158
158
161
157
143
145
97
80
67
63
47
51
58
49
77
71
55
61
54
52
48
46
51
52
56
48
51
45
43
53
38
46
37
41
53
46
45
46
39
49
60
80
111
125
125
125
147
166
169
165
171
181
183
186
179
178
180
168
167
173
171
178
178
177
184
183
179
179
174
168
162
157
153
142
136
133
86
68
57
66
52
49
53
54
78
69
55
61
53
50
47
45
50
49
49
55
42
42
41
42
40
46
41
43
46
41
44
47
40
52
78
104
133
144
144
157
174
177
182
176
178
192
196
189
181
184
186
172
175
177
178
187
188
187
194
190
182
180
179
176
165
168
159
142
140
115
90
78
57
57
47
54
63
63
83
72
56
61
56
49
44
43
49
49
45
59
35
40
39
40
42
43
43
49
46
44
48
47
48
75
110
123
142
157
158
171
186
184
190
188
187
193
199
193
188
187
187
177
179
182
184
189
188
187
195
193
188
186
179
175
173
167
157
149
137
119
90
76
62
67
58
61
72
72
85
74
59
61
56
47
41
43
49
48
47
58
36
42
40
47
43
41
45
51
43
43
45
40
55
98
134
142
157
170
172
182
193
194
195
199
194
186
193
203
207
196
192
188
185
190
188
187
187
188
192
194
192
189
183
177
175
161
149
142
132
129
81
60
58
69
61
61
65
66
73
65
56
58
54
46
42
44
49
47
52
52
39
43
42
50
44
43
44
47
41
45
47
45
63
102
139
155
176
180
183
195
198
202
200
204
199
189
195
206
214
200
192
187
185
189
189
188
191
194
197
197
192
187
185
184
174
170
160
142
155
132
82
61
58
64
61
61
60
63
67
61
56
55
50
46
44
47
48
45
57
47
40
44
44
43
46
47
43
46
46
57
56
58
84
128
159
167
184
180
188
195
199
204
205
205
203
203
201
203
206
206
199
186
190
190
194
197
201
204
200
199
195
188
187
185
177
166
156
136
154
139
86
65
67
76
76
63
60
68
71
66
56
50
47
46
46
48
48
44
60
44
38
44
44
35
46
52
46
50
53
63
61
63
94
144
171
166
178
180
197
198
201
204
212
207
204
210
199
196
195
205
201
183
192
190
198
203
206
207
202
202
198
192
186
182
185
158
150
137
145
142
102
89
73
68
72
63
56
66
71
65
54
46
45
45
47
49
48
44
67
39
38
47
34
42
44
49
51
56
59
45
67
78
111
153
179
183
186
184
197
207
206
215
218
215
211
207
202
192
194
195
197
196
195
199
200
202
203
203
205
201
196
195
189
184
183
160
150
145
136
125
94
86
57
61
72
58
48
60
75
59
52
44
42
45
50
51
46
46
55
45
45
42
36
43
44
45
58
52
55
60
77
94
138
160
185
201
194
188
203
211
212
218
217
212
207
205
202
194
196
198
199
197
197
202
203
205
205
204
205
201
197
193
189
188
181
171
165
148
142
102
97
70
50
66
69
59
59
66
76
63
48
44
39
42
49
48
45
47
47
36
41
45
49
46
43
55
52
68
60
83
77
91
152
170
174
197
200
205
210
210
212
214
213
207
204
203
201
203
203
202
199
195
194
196
206
212
209
205
204
199
192
191
195
189
181
173
155
142
154
110
80
56
55
59
64
57
69
68
70
60
43
45
39
35
39
45
46
46
45
37
43
44
44
38
47
65
51
99
70
63
80
123
150
172
179
196
200
204
205
215
214
214
214
213
213
211
208
202
198
195
195
196
199
202
207
212
210
205
205
200
193
189
187
183
173
166
157
148
142
98
72
70
68
59
78
66
65
67
76
68
40
42
44
47
49
50
55
67
33
37
45
41
41
41
52
70
62
78
104
80
73
135
163
190
188
190
202
207
203
212
213
213
213
215
216
213
208
205
199
195
196
198
199
201
206
211
209
204
205
201
194
188
181
179
172
166
162
154
137
90
88
83
74
68
79
64
63
61
67
64
47
48
45
47
55
63
70
78
35
42
46
48
44
45
51
52
98
80
102
97
85
146
184
201
197
193
199
202
207
215
214
215
214
214
212
210
209
205
202
201
202
202
203
205
210
214
210
203
204
202
193
188
180
172
171
172
149
135
136
93
84
71
77
78
67
62
62
58
60
51
45
48
58
67
67
60
56
62
38
39
46
54
39
46
75
51
105
108
90
107
137
177
184
191
195
204
205
200
211
209
213
213
213
209
206
206
210
209
210
212
209
205
202
204
209
214
209
201
204
203
198
191
182
175
171
188
160
127
124
90
78
74
83
78
58
53
63
55
56
56
71
68
65
67
79
93
104
112
44
44
39
36
43
63
65
111
103
95
143
143
166
177
186
202
207
202
203
202
207
210
212
213
213
209
206
206
209
211
212
214
213
207
204
206
212
213
208
201
200
205
202
195
185
182
184
170
165
155
140
100
91
70
66
66
59
56
65
57
69
74
71
85
104
115
115
107
101
85
